<svg id="visual" viewBox="0 0 1280 1280" width="1280" height="1280" xmlns="http://www.w3.org/2000/svg" xmlns:xlink="http://www.w3.org/1999/xlink" version="1.1"><rect x="0" y="0" width="1280" height="1280" fill="#001220"></rect><defs><linearGradient id="grad1_0" x1="0%" y1="0%" x2="100%" y2="100%"><stop offset="30%" stop-color="#00a8bf" stop-opacity="1"></stop><stop offset="70%" stop-color="#00a8bf" stop-opacity="1"></stop></linearGradient></defs><defs><linearGradient id="grad1_1" x1="0%" y1="0%" x2="100%" y2="100%"><stop offset="30%" stop-color="#00a8bf" stop-opacity="1"></stop><stop offset="70%" stop-color="#09718b" stop-opacity="1"></stop></linearGradient></defs><defs><linearGradient id="grad1_2" x1="0%" y1="0%" x2="100%" y2="100%"><stop offset="30%" stop-color="#0c3e55" stop-opacity="1"></stop><stop offset="70%" stop-color="#09718b" stop-opacity="1"></stop></linearGradient></defs><defs><linearGradient id="grad1_3" x1="0%" y1="0%" x2="100%" y2="100%"><stop offset="30%" stop-color="#0c3e55" stop-opacity="1"></stop><stop offset="70%" stop-color="#001220" stop-opacity="1"></stop></linearGradient></defs><defs><linearGradient id="grad2_0" x1="0%" y1="0%" x2="100%" y2="100%"><stop offset="30%" stop-color="#00a8bf" stop-opacity="1"></stop><stop offset="70%" stop-color="#00a8bf" stop-opacity="1"></stop></linearGradient></defs><defs><linearGradient id="grad2_1" x1="0%" y1="0%" x2="100%" y2="100%"><stop offset="30%" stop-color="#09718b" stop-opacity="1"></stop><stop offset="70%" stop-color="#00a8bf" stop-opacity="1"></stop></linearGradient></defs><defs><linearGradient id="grad2_2" x1="0%" y1="0%" x2="100%" y2="100%"><stop offset="30%" stop-color="#09718b" stop-opacity="1"></stop><stop offset="70%" stop-color="#0c3e55" stop-opacity="1"></stop></linearGradient></defs><defs><linearGradient id="grad2_3" x1="0%" y1="0%" x2="100%" y2="100%"><stop offset="30%" stop-color="#001220" stop-opacity="1"></stop><stop offset="70%" stop-color="#0c3e55" stop-opacity="1"></stop></linearGradient></defs><g transform="translate(1280, 0)"><path d="M0 814.6C-116.6 812.5 -233.2 810.4 -311.7 752.6C-390.3 694.8 -430.8 581.2 -503.5 503.5C-576.1 425.7 -681 383.7 -738.2 305.8C-795.4 227.8 -805 113.9 -814.6 0L0 0Z" fill="#08273a"></path><path d="M0 610.9C-87.4 609.4 -174.9 607.8 -233.8 564.4C-292.7 521.1 -323.1 435.9 -377.6 377.6C-432.1 319.3 -510.7 287.8 -553.6 229.3C-596.5 170.9 -603.7 85.4 -610.9 0L0 0Z" fill="#0d5770"></path><path d="M0 407.3C-58.3 406.2 -116.6 405.2 -155.9 376.3C-195.1 347.4 -215.4 290.6 -251.7 251.7C-288.1 212.8 -340.5 191.9 -369.1 152.9C-397.7 113.9 -402.5 57 -407.3 0L0 0Z" fill="#038ca6"></path><path d="M0 203.6C-29.1 203.1 -58.3 202.6 -77.9 188.1C-97.6 173.7 -107.7 145.3 -125.9 125.9C-144 106.4 -170.2 95.9 -184.5 76.4C-198.8 57 -201.2 28.5 -203.6 0L0 0Z" fill="#00a8bf"></path></g><g transform="translate(0, 1280)"><path d="M0 -814.6C107.2 -803.6 214.4 -792.5 311.7 -752.6C409.1 -712.6 496.7 -643.7 563.6 -563.6C630.5 -483.4 676.7 -392 715.1 -296.2C753.5 -200.4 784 -100.2 814.6 0L0 0Z" fill="#08273a"></path><path d="M0 -610.9C80.4 -602.7 160.8 -594.4 233.8 -564.4C306.8 -534.5 372.5 -482.8 422.7 -422.7C472.8 -362.6 507.5 -294 536.3 -222.1C565.1 -150.3 588 -75.1 610.9 0L0 0Z" fill="#0d5770"></path><path d="M0 -407.3C53.6 -401.8 107.2 -396.3 155.9 -376.3C204.6 -356.3 248.3 -321.9 281.8 -281.8C315.2 -241.7 338.3 -196 357.5 -148.1C376.7 -100.2 392 -50.1 407.3 0L0 0Z" fill="#038ca6"></path><path d="M0 -203.6C26.8 -200.9 53.6 -198.1 77.9 -188.1C102.3 -178.2 124.2 -160.9 140.9 -140.9C157.6 -120.9 169.2 -98 178.8 -74C188.4 -50.1 196 -25 203.6 0L0 0Z" fill="#00a8bf"></path></g></svg>